<svg xmlns="http://www.w3.org/2000/svg" viewBox="0 0 900 811" width="900" height="811" role="img" aria-label="Nexus Prism logo">
  <defs>
    <linearGradient id="ruby" x1="0" y1="0" x2="1" y2="1">
      <stop offset="0" stop-color="#ff6b78"/>
      <stop offset="0.42" stop-color="#b91c2a"/>
      <stop offset="1" stop-color="#260307"/>
    </linearGradient>
    <linearGradient id="ruby2" x1="1" y1="0" x2="0" y2="1">
      <stop offset="0" stop-color="#ff8a94" stop-opacity=".95"/>
      <stop offset=".5" stop-color="#a50f1c"/>
      <stop offset="1" stop-color="#120104"/>
    </linearGradient>
    <linearGradient id="edge" x1="0" y1="0" x2="1" y2="0">
      <stop offset="0" stop-color="#fff0f2" stop-opacity=".8"/>
      <stop offset=".42" stop-color="#ff4a5b" stop-opacity=".65"/>
      <stop offset="1" stop-color="#3b0509" stop-opacity=".35"/>
    </linearGradient>
    <radialGradient id="hot" cx="50%" cy="49%" r="55%">
      <stop offset="0" stop-color="#ff5a68" stop-opacity=".95"/>
      <stop offset=".36" stop-color="#c21727" stop-opacity=".42"/>
      <stop offset="1" stop-color="#090001" stop-opacity="0"/>
    </radialGradient>
    <filter id="glow" x="-30%" y="-30%" width="160%" height="160%">
      <feGaussianBlur stdDeviation="10" result="b"/>
      <feColorMatrix in="b" type="matrix" values="1 0 0 0 0.8 0 0.15 0 0 0.02 0 0 0.15 0 0.05 0 0 0 0.8 0"/>
      <feMerge><feMergeNode/><feMergeNode in="SourceGraphic"/></feMerge>
    </filter>
    <style>
      .glass{fill:url(#ruby);stroke:url(#edge);stroke-width:8;stroke-linejoin:round;filter:url(#glow)}
      .facet{fill:url(#ruby2);stroke:#ffd5da;stroke-opacity:.38;stroke-width:5;stroke-linejoin:round}
      .dark{fill:#0b0103;fill-opacity:.72;stroke:#ffb6bf;stroke-opacity:.36;stroke-width:5;stroke-linejoin:round}
      .line{fill:none;stroke:#ffe0e4;stroke-opacity:.55;stroke-width:4;stroke-linecap:round;stroke-linejoin:round}
      .crack{fill:none;stroke:#140105;stroke-opacity:.72;stroke-width:4;stroke-linecap:round;stroke-linejoin:round}
      .hot{fill:url(#hot);opacity:.9;mix-blend-mode:screen}
    </style>
  </defs>
  <g opacity=".98">
    <path class="glass" d="M450 24 690 364 585 548 315 548 210 364Z"/>
    <path class="facet" d="M450 24 450 364 210 364Z" opacity=".76"/>
    <path class="facet" d="M450 24 690 364 450 364Z" opacity=".64"/>
    <path class="facet" d="M210 364 315 548 450 364Z" opacity=".55"/>
    <path class="facet" d="M690 364 585 548 450 364Z" opacity=".5"/>
    <path class="dark" d="M450 186 555 338 345 338Z"/>
    <path class="line" d="M450 24v162M230 364h440M318 548l132-184 135 184"/>
    <ellipse class="hot" cx="450" cy="363" rx="220" ry="45"/>
    <path class="crack" d="M356 132c30 28 39 55 25 83m-8 22c-24 19-33 40-18 66m175-190c-29 51-30 89-3 128m40 62c-36-31-68-36-95-14m-92 127c38-23 72-24 101-4"/>
  </g>
  <g opacity=".96">
    <path class="glass" d="M198 368 335 787 20 787 102 488Z"/>
    <path class="facet" d="M198 368 214 787 102 488Z" opacity=".65"/>
    <path class="facet" d="M198 368 335 787 214 787Z" opacity=".55"/>
    <path class="dark" d="M150 515 244 738 70 738Z"/>
    <path class="line" d="M28 787h307M104 488l110 299M198 368l-48 147"/>
    <path class="crack" d="M122 632c44-31 77-34 103-9m-59 55c-25 18-30 39-14 64m74-164c36 36 50 80 40 132"/>
  </g>
  <g opacity=".96">
    <path class="glass" d="M702 368 880 787 565 787 665 488Z"/>
    <path class="facet" d="M702 368 665 488 565 787Z" opacity=".58"/>
    <path class="facet" d="M702 368 880 787 690 787Z" opacity=".62"/>
    <path class="dark" d="M750 515 833 738 658 738Z"/>
    <path class="line" d="M565 787h307M665 488l25 299M702 368l48 147"/>
    <path class="crack" d="M710 626c33-32 64-38 96-17m-62 59c23 18 29 39 16 67m-86-118c-28 40-39 82-29 126"/>
  </g>
  <g opacity=".98">
    <path class="glass" d="M335 548 450 364 565 548 450 787Z"/>
    <path class="facet" d="M335 548 450 364 450 787Z" opacity=".72"/>
    <path class="facet" d="M565 548 450 364 450 787Z" opacity=".58"/>
    <path class="line" d="M335 548h230M450 364v423"/>
    <path class="crack" d="M424 494c30 43 37 79 22 116m35-72c-19 40-18 75 2 104"/>
  </g>
  <path d="M450 22 692 364 880 787H20l178-419Z" fill="none" stroke="#ffd3d8" stroke-opacity=".46" stroke-width="5" stroke-linejoin="round"/>
  <path d="M245 744h410" stroke="#ff6674" stroke-opacity=".35" stroke-width="9" stroke-linecap="round"/>
</svg>
